<svg width="1175" height="175" viewBox="0 0 1175 175" fill="none" xmlns="http://www.w3.org/2000/svg">
<g id="Frame 1" clip-path="url(#clip0_1:2)">
<rect width="1175" height="175" fill="white"/>
<path id="AMRESH" d="M0 175V50H25V25H50V0H125V25H150V50H175V175H125V125H50V175H0ZM50 100H125V50H100V25H75V50H50V100ZM200 175V0H250V25H275V50H300V25H325V0H375V175H325V75H300V125H275V75H250V175H200ZM400 175V0H550V25H575V100H525V125H550V150H575V175H500V150H475V125H450V175H400ZM450 100H500V75H525V25H450V100ZM600 175V0H775V25H650V75H750V100H650V150H775V175H600ZM825 175V150H800V125H850V150H925V100H825V75H800V25H825V0H950V25H975V50H925V25H850V75H950V100H975V150H950V175H825ZM1000 175V0H1050V75H1125V0H1175V175H1125V100H1050V175H1000Z" fill="black"/>
</g>
<defs>
<clipPath id="clip0_1:2">
<rect width="1175" height="175" fill="white"/>
</clipPath>
</defs>
</svg>
