<svg width="470" height="70" viewBox="0 0 470 70" fill="none" xmlns="http://www.w3.org/2000/svg">
<g id="Frame 1" clip-path="url(#clip0_1:2)">
<rect width="470" height="70" fill="white"/>
<path id="AMRESH" d="M0 70V20H10V10H20V0H50V10H60V20H70V70H50V50H20V70H0ZM20 40H50V20H40V10H30V20H20V40ZM80 70V0H100V10H110V20H120V10H130V0H150V70H130V30H120V50H110V30H100V70H80ZM160 70V0H220V10H230V40H210V50H220V60H230V70H200V60H190V50H180V70H160ZM180 40H200V30H210V10H180V40ZM240 70V0H310V10H260V30H300V40H260V60H310V70H240ZM330 70V60H320V50H340V60H370V40H330V30H320V10H330V0H380V10H390V20H370V10H340V30H380V40H390V60H380V70H330ZM400 70V0H420V30H450V0H470V70H450V40H420V70H400Z" fill="black"/>
</g>
<defs>
<clipPath id="clip0_1:2">
<rect width="470" height="70" fill="white"/>
</clipPath>
</defs>
</svg>
